<mxfile host="app.diagrams.net" agent="Mozilla/5.0 (Macintosh; Intel Mac OS X 10_15_7) AppleWebKit/537.36 (KHTML, like Gecko) Chrome/137.0.0.0 Safari/537.36" version="27.1.6">
  <diagram name="Page-1" id="pZGmEfrGCqBCUozpExTI">
    <mxGraphModel dx="1198" dy="1771" grid="1" gridSize="10" guides="1" tooltips="1" connect="1" arrows="1" fold="1" page="1" pageScale="1" pageWidth="850" pageHeight="1100" math="0" shadow="0">
      <root>
        <mxCell id="0" />
        <mxCell id="1" parent="0" />
        <mxCell id="x8OKTubehIEbgYfxIEi6-8" value="" style="edgeStyle=orthogonalEdgeStyle;rounded=0;orthogonalLoop=1;jettySize=auto;html=1;" edge="1" parent="1" source="x8OKTubehIEbgYfxIEi6-1" target="x8OKTubehIEbgYfxIEi6-7">
          <mxGeometry relative="1" as="geometry" />
        </mxCell>
        <mxCell id="x8OKTubehIEbgYfxIEi6-1" value="" style="verticalLabelPosition=bottom;sketch=0;aspect=fixed;html=1;verticalAlign=top;strokeColor=none;align=center;outlineConnect=0;shape=mxgraph.citrix.dns_server;" vertex="1" parent="1">
          <mxGeometry x="360" y="120" width="76.5" height="92.5" as="geometry" />
        </mxCell>
        <mxCell id="x8OKTubehIEbgYfxIEi6-5" value="" style="edgeStyle=orthogonalEdgeStyle;rounded=0;orthogonalLoop=1;jettySize=auto;html=1;" edge="1" parent="1" source="x8OKTubehIEbgYfxIEi6-3" target="x8OKTubehIEbgYfxIEi6-1">
          <mxGeometry relative="1" as="geometry" />
        </mxCell>
        <mxCell id="x8OKTubehIEbgYfxIEi6-3" value="" style="image;aspect=fixed;perimeter=ellipsePerimeter;html=1;align=center;shadow=0;dashed=0;fontColor=#4277BB;labelBackgroundColor=default;fontSize=12;spacingTop=3;image=img/lib/ibm/users/browser.svg;" vertex="1" parent="1">
          <mxGeometry x="360" y="20" width="60" height="60" as="geometry" />
        </mxCell>
        <mxCell id="x8OKTubehIEbgYfxIEi6-6" value="DNS" style="text;html=1;align=center;verticalAlign=middle;whiteSpace=wrap;rounded=0;" vertex="1" parent="1">
          <mxGeometry x="430" y="140" width="60" height="30" as="geometry" />
        </mxCell>
        <mxCell id="x8OKTubehIEbgYfxIEi6-11" value="" style="edgeStyle=orthogonalEdgeStyle;rounded=0;orthogonalLoop=1;jettySize=auto;html=1;" edge="1" parent="1" source="x8OKTubehIEbgYfxIEi6-7" target="x8OKTubehIEbgYfxIEi6-9">
          <mxGeometry relative="1" as="geometry" />
        </mxCell>
        <mxCell id="x8OKTubehIEbgYfxIEi6-7" value="" style="outlineConnect=0;dashed=0;verticalLabelPosition=bottom;verticalAlign=top;align=center;html=1;shape=mxgraph.aws3.classic_load_balancer;fillColor=#F58536;gradientColor=none;" vertex="1" parent="1">
          <mxGeometry x="368" y="250" width="69" height="62" as="geometry" />
        </mxCell>
        <mxCell id="x8OKTubehIEbgYfxIEi6-14" value="" style="edgeStyle=orthogonalEdgeStyle;rounded=0;orthogonalLoop=1;jettySize=auto;html=1;" edge="1" parent="1" source="x8OKTubehIEbgYfxIEi6-9" target="x8OKTubehIEbgYfxIEi6-13">
          <mxGeometry relative="1" as="geometry" />
        </mxCell>
        <mxCell id="x8OKTubehIEbgYfxIEi6-17" value="" style="edgeStyle=orthogonalEdgeStyle;rounded=0;orthogonalLoop=1;jettySize=auto;html=1;" edge="1" parent="1" source="x8OKTubehIEbgYfxIEi6-9" target="x8OKTubehIEbgYfxIEi6-15">
          <mxGeometry relative="1" as="geometry" />
        </mxCell>
        <mxCell id="x8OKTubehIEbgYfxIEi6-9" value="" style="image;aspect=fixed;perimeter=ellipsePerimeter;html=1;align=center;shadow=0;dashed=0;fontColor=#4277BB;labelBackgroundColor=default;fontSize=12;spacingTop=3;image=img/lib/ibm/applications/app_server.svg;" vertex="1" parent="1">
          <mxGeometry x="377" y="340" width="60" height="60" as="geometry" />
        </mxCell>
        <mxCell id="x8OKTubehIEbgYfxIEi6-13" value="" style="sketch=0;points=[[0,0,0],[0.25,0,0],[0.5,0,0],[0.75,0,0],[1,0,0],[0,1,0],[0.25,1,0],[0.5,1,0],[0.75,1,0],[1,1,0],[0,0.25,0],[0,0.5,0],[0,0.75,0],[1,0.25,0],[1,0.5,0],[1,0.75,0]];outlineConnect=0;fontColor=#232F3E;fillColor=#7AA116;strokeColor=#ffffff;dashed=0;verticalLabelPosition=bottom;verticalAlign=top;align=center;html=1;fontSize=12;fontStyle=0;aspect=fixed;shape=mxgraph.aws4.resourceIcon;resIcon=mxgraph.aws4.s3;" vertex="1" parent="1">
          <mxGeometry x="200" y="331" width="78" height="78" as="geometry" />
        </mxCell>
        <mxCell id="x8OKTubehIEbgYfxIEi6-15" value="" style="image;html=1;image=img/lib/clip_art/computers/Database_128x128.png" vertex="1" parent="1">
          <mxGeometry x="368" y="450" width="80" height="80" as="geometry" />
        </mxCell>
        <mxCell id="x8OKTubehIEbgYfxIEi6-18" value="Web browser" style="text;html=1;align=center;verticalAlign=middle;resizable=0;points=[];autosize=1;strokeColor=none;fillColor=none;" vertex="1" parent="1">
          <mxGeometry x="415" y="28" width="90" height="30" as="geometry" />
        </mxCell>
        <mxCell id="x8OKTubehIEbgYfxIEi6-19" value="Load Balancer" style="text;html=1;align=center;verticalAlign=middle;resizable=0;points=[];autosize=1;strokeColor=none;fillColor=none;" vertex="1" parent="1">
          <mxGeometry x="425" y="250" width="100" height="30" as="geometry" />
        </mxCell>
        <mxCell id="x8OKTubehIEbgYfxIEi6-20" value="App server" style="text;html=1;align=center;verticalAlign=middle;resizable=0;points=[];autosize=1;strokeColor=none;fillColor=none;" vertex="1" parent="1">
          <mxGeometry x="425" y="331" width="80" height="30" as="geometry" />
        </mxCell>
        <mxCell id="x8OKTubehIEbgYfxIEi6-21" value="DB" style="text;html=1;align=center;verticalAlign=middle;resizable=0;points=[];autosize=1;strokeColor=none;fillColor=none;" vertex="1" parent="1">
          <mxGeometry x="460" y="458" width="40" height="30" as="geometry" />
        </mxCell>
        <mxCell id="x8OKTubehIEbgYfxIEi6-22" value="S3" style="text;html=1;align=center;verticalAlign=middle;resizable=0;points=[];autosize=1;strokeColor=none;fillColor=none;" vertex="1" parent="1">
          <mxGeometry x="210" y="408" width="40" height="30" as="geometry" />
        </mxCell>
        <mxCell id="x8OKTubehIEbgYfxIEi6-23" value="&lt;h1&gt;Two Tier Architecture&amp;nbsp;&lt;/h1&gt;" style="text;html=1;align=center;verticalAlign=middle;resizable=0;points=[];autosize=1;strokeColor=none;fillColor=none;" vertex="1" parent="1">
          <mxGeometry x="267.5" y="-80" width="270" height="70" as="geometry" />
        </mxCell>
      </root>
    </mxGraphModel>
  </diagram>
</mxfile>
